<?xml version="1.0" standalone="no"?>
<!DOCTYPE svg PUBLIC "-//W3C//DTD SVG 20010904//EN"
 "http://www.w3.org/TR/2001/REC-SVG-20010904/DTD/svg10.dtd">
<svg version="1.0" xmlns="http://www.w3.org/2000/svg"
 width="96.000000pt" height="96.000000pt" viewBox="0 0 96.000000 96.000000"
 preserveAspectRatio="xMidYMid meet">

<g transform="translate(0.000000,96.000000) scale(0.100000,-0.100000)"
fill="#000000" stroke="none">
<path d="M255 848 c-3 -7 -4 -159 -3 -338 l3 -325 118 -3 c193 -4 272 20 316
98 45 80 35 170 -26 227 l-35 33 31 35 c70 80 45 206 -51 257 -38 19 -61 23
-195 26 -123 3 -154 1 -158 -10z m310 -113 c16 -15 25 -36 25 -55 0 -72 -44
-100 -155 -100 l-75 0 0 90 0 90 90 0 c83 0 93 -2 115 -25z m2 -271 c34 -26
48 -75 33 -120 -17 -49 -52 -64 -155 -64 l-85 0 0 106 0 106 90 -4 c70 -3 96
-9 117 -24z"/>
<path d="M250 115 l0 -35 225 0 225 0 0 35 0 35 -225 0 -225 0 0 -35z"/>
</g>
</svg>
